<svg width="24" height="24" viewBox="0 0 24 24" fill="none" xmlns="http://www.w3.org/2000/svg">
<path d="M21.0049 5.97998C17.6749 5.64998 14.3249 5.47998 10.9849 5.47998C9.00488 5.47998 7.02488 5.57998 5.04488 5.77998L3.00488 5.97998" stroke="#D70000" stroke-width="1.5" stroke-linecap="round" stroke-linejoin="round"/>
<path d="M8.50488 4.97L8.72488 3.66C8.88488 2.71 9.00488 2 10.6949 2H13.3149C15.0049 2 15.1349 2.75 15.2849 3.67L15.5049 4.97" stroke="#D70000" stroke-width="1.5" stroke-linecap="round" stroke-linejoin="round"/>
<path d="M18.8548 9.14001L18.2048 19.21C18.0948 20.78 18.0048 22 15.2148 22H8.79479C6.00479 22 5.91479 20.78 5.80479 19.21L5.15479 9.14001" stroke="#D70000" stroke-width="1.5" stroke-linecap="round" stroke-linejoin="round"/>
<path d="M10.335 16.5H13.665" stroke="#D70000" stroke-width="1.5" stroke-linecap="round" stroke-linejoin="round"/>
<path d="M9.50488 12.5H14.5049" stroke="#D70000" stroke-width="1.5" stroke-linecap="round" stroke-linejoin="round"/>
</svg>
